<?xml version="1.0" ?><svg xmlns="http://www.w3.org/2000/svg" xmlns:xlink="http://www.w3.org/1999/xlink" version="1.1" viewBox="0 0 512 512" style="enable-background:new 0 0 512 512;" xml:space="preserve"><g id="_x31_9_x2C___education_x2C__university_x2C__graduation_cap_x2C__school_x2C__fashion"><g id="XMLID_350_"><path id="XMLID_523_" style="fill:#313A6B;" d="M430.996,191.835v153.61c0,87.328-360,85.85-360,0v-153.61    c0.078,0.042,46.555,15.217,92.256,39.972c44.198,23.94,87.67,57.488,87.744,57.528c2.584-1.397,43.523-33.572,85.703-56.42    C383.071,207.796,430.943,191.865,430.996,191.835z"/><path id="XMLID_522_" style="fill:#E9BC3E;" d="M486.486,401.975l14.51,67.36c-17.78,17.78-42.22,17.78-60,0l14.51-67.36    C463.245,411.649,478.587,411.849,486.486,401.975z"/><path id="XMLID_521_" style="fill:#F5E17E;" d="M490.866,391.635c-3.032,22.235-33.94,23.892-39.24,2.69    c-3.317-13.268,6.814-24.99,19.37-24.99C482.046,369.335,492.383,380.257,490.866,391.635z"/><path id="XMLID_520_" style="fill:#4D5788;" d="M250.996,289.335c-0.158-0.085-239.437-129.695-240-130l240-130l240,130    C487.903,161.014,254.09,287.663,250.996,289.335z"/><path id="XMLID_519_" style="fill:#F5E17E;" d="M490.866,391.635"/><path id="XMLID_518_" style="fill:#E9BC3E;" d="M486.486,401.975"/><path id="XMLID_517_" style="fill:#E9BC3E;" d="M455.506,401.975"/><path id="XMLID_516_" style="fill:#F5E17E;" d="M452.996,398.055c0.11,0.23,0.23,0.46,0.35,0.68    C453.226,398.516,453.106,398.285,452.996,398.055z"/><path id="XMLID_515_" style="fill:#F5E17E;" d="M452.656,397.315c0.1,0.22,0.19,0.43,0.29,0.64    C452.846,397.745,452.746,397.535,452.656,397.315z"/><path id="XMLID_514_" style="fill:#F5E17E;" d="M451.626,394.326c0.08,0.32,0.17,0.63,0.27,0.95    C451.796,394.965,451.706,394.646,451.626,394.326z"/><path id="XMLID_513_" style="fill:#F5E17E;" d="M451.406,393.355c0.06,0.33,0.14,0.65,0.22,0.97    C451.546,394.005,451.466,393.685,451.406,393.355z"/><path id="XMLID_512_" style="fill:#F5E17E;" d="M451.406,393.355"/><path id="XMLID_511_" style="fill:#F5E17E;" d="M451.126,391.635"/><g id="XMLID_351_"><path id="XMLID_352_" d="M510.772,467.232l-13.62-63.228c9.083-16.133,1.43-36.71-16.156-42.947V176.127l14.763-7.996     c6.972-3.776,6.975-13.808,0-17.586l-240-130c-2.971-1.609-6.555-1.609-9.525,0l-240,130c-6.972,3.776-6.975,13.808,0,17.586     l54.763,29.663v147.654c0,104.394,380,96.434,380,0V197.794l20-10.833v174.097c-17.589,6.238-25.237,26.817-16.156,42.947     l-13.62,63.228c-0.716,3.319,0.303,6.775,2.704,9.177c21.79,21.79,52.59,21.553,74.143,0     C510.469,474.007,511.487,470.551,510.772,467.232z M420.996,345.448c0,74.617-340,69.853-340,0V208.627l165.237,89.504     c2.971,1.609,6.555,1.609,9.525,0l165.237-89.504V345.448z M250.996,277.964C239.34,271.651,39.012,163.14,31.992,159.338     L250.996,40.711l210.999,114.291c-0.634,1.313-1,2.78-1,4.336v4.877C449.235,170.586,260.528,272.802,250.996,277.964z      M470.996,379.338c5.514,0,10,4.486,10,10s-4.486,10-10,10s-10-4.486-10-10S465.483,379.338,470.996,379.338z M451.999,465.747     l10.276-47.706c5.579,1.698,11.66,1.76,17.442,0l10.276,47.706C477.855,475.182,463.618,474.779,451.999,465.747z"/></g></g></g><g id="Layer_1"/></svg>